<svg width="187" height="167" viewBox="0 0 187 167" fill="none" xmlns="http://www.w3.org/2000/svg">
<g id="Illustration">
<path id="Vector" d="M41.1631 167H149.554C152.533 167.007 155.405 165.882 157.593 163.848C166.724 155.344 174.029 145.049 179.058 133.599C184.088 122.149 186.735 109.784 186.839 97.2662C187.306 46.3659 146.178 4.48416 95.5803 4.36403C44.9543 4.24384 3.87665 45.495 3.87665 96.3982C3.86219 109.068 6.45529 121.603 11.4927 133.214C16.53 144.826 23.9026 155.263 33.146 163.867C35.3302 165.891 38.1937 167.01 41.1631 167Z" fill="#F1F5F9"/>
<path id="Vector_2" d="M79.6488 144.687C79.9944 140.648 77.8876 137.169 74.9432 136.917C71.9988 136.665 69.3317 139.735 68.9861 143.775C68.6405 147.814 70.7473 151.292 73.6917 151.544C76.6361 151.796 79.3032 148.726 79.6488 144.687Z" fill="#77CDBE"/>
<path id="Vector_3" d="M76.3134 149.69C77.0574 146.83 74.4799 143.684 70.5565 142.664C66.6332 141.643 62.8496 143.135 62.1057 145.995C61.3617 148.855 63.9392 152 67.8626 153.021C71.7859 154.041 75.5695 152.55 76.3134 149.69Z" fill="#77CDBE"/>
<path id="Vector_4" d="M75.5667 151.415C78.2372 149.527 78.3021 145.026 75.7117 141.363C73.1212 137.699 68.8564 136.26 66.1859 138.149C63.5153 140.037 63.4504 144.538 66.0409 148.201C68.6314 151.864 72.8962 153.303 75.5667 151.415Z" fill="#77CDBE"/>
<path id="Vector_5" d="M124.137 14.9004C125.576 14.9004 127 15.1837 128.329 15.7342C129.658 16.2847 130.866 17.0915 131.883 18.1086C132.9 19.1258 133.707 20.3333 134.257 21.6623C134.808 22.9912 135.091 24.4156 135.091 25.8541C135.091 25.8614 135.091 25.8685 135.091 25.8758L143.297 24.2434V36.8077H124.137C121.234 36.8059 118.449 35.6511 116.396 33.5971C114.344 31.543 113.191 28.758 113.191 25.8541C113.191 22.9501 114.344 20.1651 116.396 18.1111C118.449 16.057 121.234 14.9022 124.137 14.9004Z" fill="#F8FAFC"/>
<path id="Vector_6" d="M143.297 0C147.466 0.000401318 151.511 1.41559 154.771 4.01402C158.031 6.61245 160.312 10.2403 161.242 14.304C162.796 14.0019 164.396 14.028 165.94 14.3807C167.483 14.7334 168.936 15.4049 170.204 16.352C171.473 17.2992 172.529 18.5012 173.306 19.8807C174.082 21.2603 174.562 22.787 174.714 24.3628C174.865 25.9387 174.686 27.5288 174.187 29.0313C173.688 30.5337 172.88 31.9151 171.816 33.087C170.751 34.2589 169.454 35.1952 168.006 35.836C166.558 36.4767 164.993 36.8077 163.41 36.8077H143.297C138.416 36.8077 133.735 34.8687 130.284 31.4174C126.833 27.966 124.894 23.2849 124.894 18.4039C124.894 13.5228 126.833 8.84176 130.284 5.39036C133.735 1.93897 138.416 0 143.297 0Z" fill="#F8FAFC"/>
<path id="Vector_7" d="M127.85 114.628H108.988C106.573 114.628 104.257 113.668 102.55 111.961C100.842 110.253 99.8824 107.937 99.8824 105.522C99.8824 103.107 100.842 100.791 102.55 99.0828C104.257 97.3751 106.573 96.4158 108.988 96.4158H127.85C130.779 96.4124 133.587 95.2474 135.658 93.1763C137.729 91.1052 138.894 88.2972 138.897 85.3682V70.8291C138.897 68.414 139.857 66.0979 141.565 64.3902C143.272 62.6825 145.588 61.7231 148.003 61.7231C150.418 61.7231 152.735 62.6825 154.442 64.3902C156.15 66.0979 157.109 68.414 157.109 70.8291V85.3682C157.101 93.1256 154.015 100.563 148.53 106.048C143.044 111.533 135.607 114.619 127.85 114.628Z" fill="#A5DED3"/>
<path id="Vector_8" d="M97.4579 5.49487H97.4579C103.206 5.49487 108.72 7.77848 112.784 11.8433C116.849 15.9082 119.133 21.4213 119.133 27.1699V160.688H75.7828V27.1699C75.7828 21.4213 78.0665 15.9082 82.1313 11.8433C86.1962 7.77848 91.7093 5.49487 97.4579 5.49487Z" fill="#D2EEE9"/>
<path id="Vector_9" d="M50.6287 79.2539C49.1902 79.2539 47.7659 79.5372 46.4369 80.0877C45.1079 80.6382 43.9004 81.445 42.8833 82.4622C41.8661 83.4793 41.0593 84.6868 40.5088 86.0158C39.9583 87.3448 39.675 88.7691 39.675 90.2076C39.675 90.2149 39.6756 90.222 39.6756 90.2293L31.4686 88.5969V101.161H50.6287C53.5338 101.161 56.3199 100.007 58.3741 97.953C60.4283 95.8988 61.5824 93.1127 61.5824 90.2076C61.5824 87.3025 60.4283 84.5164 58.3741 82.4622C56.3199 80.408 53.5338 79.2539 50.6287 79.2539Z" fill="#F8FAFC"/>
<path id="Vector_10" d="M31.4684 64.3535C27.2996 64.3539 23.2544 65.7691 19.9946 68.3675C16.7348 70.966 14.4533 74.5938 13.5235 78.6575C11.9695 78.3554 10.3694 78.3815 8.82609 78.7342C7.28275 79.0869 5.83021 79.7584 4.56169 80.7056C3.29317 81.6527 2.23671 82.8547 1.46011 84.2343C0.683516 85.6138 0.203944 87.1405 0.0521802 88.7163C-0.099584 90.2922 0.0798123 91.8823 0.578854 93.3848C1.0779 94.8872 1.88555 96.2687 2.94999 97.4405C4.01443 98.6124 5.31213 99.5487 6.7598 100.189C8.20746 100.83 9.7731 101.161 11.3562 101.161H31.4684C36.3478 101.159 41.0267 99.2189 44.4761 95.7677C47.9256 92.3166 49.8634 87.6368 49.8634 82.7574C49.8634 77.8779 47.9256 73.1981 44.4761 69.747C41.0267 66.2959 36.3478 64.3559 31.4684 64.3535Z" fill="#F8FAFC"/>
<path id="Vector_11" d="M91.1117 89.126L75.7832 112.637V87.0808L91.1117 89.126Z" fill="#A5DED3"/>
<path id="Vector_12" d="M86.1475 90.6001H67.2862C59.5287 90.5913 52.0915 87.5058 46.6061 82.0204C41.1208 76.5351 38.0352 69.0978 38.0265 61.3403V46.8015C38.0265 44.3865 38.9859 42.0703 40.6936 40.3626C42.4013 38.6549 44.7174 37.6956 47.1324 37.6956C49.5475 37.6956 51.8636 38.6549 53.5713 40.3626C55.279 42.0703 56.2384 44.3865 56.2384 46.8015V61.3404C56.2417 64.2694 57.4067 67.0776 59.4779 69.1487C61.549 71.2199 64.3572 72.3849 67.2862 72.3882H86.1475C88.5625 72.3882 90.8787 73.3476 92.5863 75.0553C94.294 76.763 95.2534 79.0791 95.2534 81.4942C95.2534 83.9092 94.294 86.2253 92.5863 87.933C90.8787 89.6407 88.5625 90.6001 86.1475 90.6001L86.1475 90.6001Z" fill="#D2EEE9"/>
<path id="Vector_13" opacity="0.3" d="M80.7463 18.2133L80.7463 18.2133C79.9734 18.8654 79.8755 20.0206 80.5276 20.7935L83.0945 23.8358C83.7466 24.6087 84.9018 24.7067 85.6747 24.0545L85.6747 24.0545C86.4476 23.4024 86.5455 22.2472 85.8934 21.4743L83.3265 18.432C82.6744 17.6591 81.5192 17.5612 80.7463 18.2133Z" fill="#F8FAFC"/>
<path id="Vector_14" opacity="0.3" d="M147.198 73.1996C146.546 72.4267 145.391 72.3287 144.618 72.9809C143.845 73.633 143.747 74.7882 144.399 75.5611L146.966 78.6034C147.618 79.3763 148.773 79.4742 149.546 78.8221C150.319 78.17 150.417 77.0148 149.765 76.2419L147.198 73.1996Z" fill="#F8FAFC"/>
<path id="Vector_15" opacity="0.3" d="M109.81 105.636L109.81 105.636C109.037 106.288 108.939 107.443 109.591 108.216L112.158 111.258C112.81 112.031 113.965 112.129 114.738 111.477L114.738 111.477C115.511 110.825 115.609 109.67 114.957 108.897L112.39 105.855C111.738 105.082 110.583 104.984 109.81 105.636Z" fill="#F8FAFC"/>
<path id="Vector_16" opacity="0.3" d="M118.302 69.0257L118.302 69.0257C117.998 68.0613 116.969 67.5263 116.005 67.8307L112.209 69.0289C111.245 69.3333 110.71 70.3619 111.014 71.3262L111.014 71.3262C111.318 72.2906 112.347 72.8256 113.311 72.5212L117.107 71.323C118.072 71.0186 118.607 69.99 118.302 69.0257Z" fill="#F8FAFC"/>
<path id="Vector_17" opacity="0.3" d="M54.7525 62.9973L54.7525 62.9973C54.4481 62.033 53.4195 61.498 52.4552 61.8024L48.6593 63.0006C47.6949 63.305 47.1599 64.3336 47.4643 65.2979L47.4643 65.2979C47.7687 66.2623 48.7973 66.7973 49.7616 66.4929L53.5575 65.2946C54.5219 64.9902 55.0569 63.9617 54.7525 62.9973Z" fill="#F8FAFC"/>
<path id="Vector_18" opacity="0.3" d="M96.8917 130.614L96.8917 130.614C97.8432 130.272 98.3371 129.223 97.9948 128.271L96.6475 124.526C96.3052 123.574 95.2563 123.08 94.3048 123.422L94.3047 123.422C93.3532 123.765 92.8593 124.814 93.2016 125.765L94.5489 129.511C94.8912 130.462 95.9401 130.956 96.8917 130.614Z" fill="#F8FAFC"/>
<path id="Vector_19" opacity="0.3" d="M89.6494 63.4091C90.6581 63.3378 91.418 62.4622 91.3466 61.4534C91.2753 60.4447 90.3997 59.6848 89.3909 59.7562L85.4203 60.0371C84.4116 60.1085 83.6517 60.9841 83.7231 61.9928C83.7944 63.0016 84.67 63.7614 85.6788 63.6901L89.6494 63.4091Z" fill="#F8FAFC"/>
<path id="Vector_20" opacity="0.3" d="M149.197 97.4565C150.205 97.3851 150.965 96.5095 150.894 95.5008C150.823 94.4921 149.947 93.7322 148.938 93.8035L144.968 94.0845C143.959 94.1559 143.199 95.0315 143.27 96.0402C143.342 97.0489 144.217 97.8088 145.226 97.7374L149.197 97.4565Z" fill="#F8FAFC"/>
<path id="Vector_21" opacity="0.3" d="M46.9273 53.483L46.9273 53.483C47.7002 52.8309 47.7981 51.6757 47.146 50.9028L44.5791 47.8604C43.927 47.0875 42.7718 46.9896 41.9989 47.6417L41.9989 47.6417C41.226 48.2939 41.1281 49.4491 41.7802 50.222L44.3471 53.2643C44.9992 54.0372 46.1544 54.1351 46.9273 53.483Z" fill="#F8FAFC"/>
<path id="Vector_22" opacity="0.3" d="M107.411 92.4269L107.411 92.4268C107.649 91.444 107.045 90.4543 106.063 90.2164L102.194 89.2798C101.211 89.0418 100.221 89.6457 99.9833 90.6286L99.9833 90.6286C99.7453 91.6114 100.349 92.6011 101.332 92.8391L105.201 93.7757C106.184 94.0136 107.173 93.4097 107.411 92.4269Z" fill="#F8FAFC"/>
<path id="Vector_23" opacity="0.3" d="M74.0811 87.8899C75.0899 87.8185 75.8498 86.9429 75.7784 85.9341C75.707 84.9254 74.8314 84.1655 73.8227 84.2369L69.8521 84.5178C68.8433 84.5892 68.0835 85.4648 68.1548 86.4735C68.2262 87.4823 69.1018 88.2422 70.1105 88.1708L74.0811 87.8899Z" fill="#F8FAFC"/>
<path id="Vector_24" opacity="0.3" d="M99.2617 40.2295C98.6761 41.054 98.8699 42.197 99.6944 42.7826C100.519 43.3681 101.662 43.1744 102.247 42.3499L104.552 39.1045C105.138 38.28 104.944 37.1369 104.12 36.5514C103.295 35.9659 102.152 36.1596 101.566 36.9841L99.2617 40.2295Z" fill="#F8FAFC"/>
<path id="Vector_25" opacity="0.3" d="M52.552 82.3695L52.552 82.3695C53.3765 82.955 54.5196 82.7613 55.1051 81.9368L57.4099 78.6914C57.9954 77.8669 57.8017 76.7238 56.9772 76.1383L56.9772 76.1383C56.1527 75.5528 55.0096 75.7465 54.4241 76.571L52.1193 79.8164C51.5338 80.6409 51.7275 81.784 52.552 82.3695Z" fill="#F8FAFC"/>
<path id="Vector_26" opacity="0.3" d="M125.85 109.79C125.265 110.615 125.459 111.758 126.283 112.343C127.108 112.929 128.251 112.735 128.836 111.91L131.141 108.665C131.726 107.841 131.533 106.697 130.708 106.112C129.884 105.526 128.741 105.72 128.155 106.545L125.85 109.79Z" fill="#F8FAFC"/>
<path id="Vector_27" opacity="0.3" d="M80.9978 106.428L80.9978 106.428C81.8223 107.014 82.9654 106.82 83.5509 105.996L85.8557 102.75C86.4412 101.926 86.2475 100.783 85.423 100.197L85.423 100.197C84.5985 99.6116 83.4555 99.8053 82.8699 100.63L80.5651 103.875C79.9796 104.7 80.1733 105.843 80.9978 106.428Z" fill="#F8FAFC"/>
<path id="Vector_28" d="M128.897 136.708C131.26 134.755 132.02 131.776 130.597 130.054C129.173 128.332 126.104 128.519 123.742 130.472C121.38 132.425 120.619 135.404 122.042 137.126C123.466 138.848 126.535 138.661 128.897 136.708Z" fill="#77CDBE"/>
<path id="Vector_29" d="M124.431 137.559C126.368 136.446 126.701 133.389 125.173 130.732C123.646 128.074 120.837 126.823 118.9 127.936C116.963 129.05 116.631 132.107 118.158 134.764C119.686 137.421 122.494 138.673 124.431 137.559Z" fill="#77CDBE"/>
<path id="Vector_30" d="M128.605 132.824C129.21 129.486 127.727 126.422 125.294 125.982C122.861 125.541 120.398 127.89 119.794 131.228C119.189 134.566 120.672 137.629 123.105 138.07C125.538 138.51 128.001 136.162 128.605 132.824Z" fill="#77CDBE"/>
<path id="Vector_31" d="M178.449 166.604C178.988 166.605 179.517 166.457 179.977 166.175C180.437 165.894 180.811 165.49 181.055 165.01C181.3 164.529 181.406 163.99 181.363 163.452C181.319 162.915 181.128 162.4 180.809 161.964C168.416 145.319 147.602 134.396 124.011 134.396C100.421 134.396 79.6068 145.319 67.2134 161.964C66.8948 162.4 66.7032 162.915 66.6598 163.452C66.6165 163.99 66.723 164.529 66.9676 165.01C67.2121 165.49 67.5852 165.894 68.0453 166.175C68.5054 166.457 69.0346 166.605 69.5739 166.604H178.449Z" fill="#CBD5E1"/>
<path id="Vector_32" d="M100.342 162.285C102.206 160.744 102.806 158.393 101.683 157.034C100.56 155.676 98.1382 155.823 96.2743 157.364C94.4105 158.905 93.8101 161.256 94.9334 162.614C96.0566 163.973 98.4782 163.825 100.342 162.285Z" fill="#77CDBE"/>
<path id="Vector_33" d="M96.8184 162.956C98.3468 162.077 98.6087 159.665 97.4035 157.569C96.1983 155.472 93.9824 154.485 92.454 155.363C90.9256 156.242 90.6637 158.654 91.8689 160.75C93.0741 162.847 95.29 163.834 96.8184 162.956Z" fill="#77CDBE"/>
<path id="Vector_34" d="M100.112 159.219C100.589 156.585 99.4188 154.169 97.4989 153.821C95.579 153.473 93.636 155.327 93.1591 157.96C92.6822 160.594 93.852 163.011 95.7719 163.358C97.6918 163.706 99.6348 161.853 100.112 159.219Z" fill="#77CDBE"/>
<path id="Vector_35" d="M100.193 166.604C90.947 154.946 73.3882 147.074 53.245 147.074C35.5803 147.074 19.9032 153.128 10.0766 162.48C9.73276 162.812 9.49608 163.24 9.397 163.708C9.29793 164.176 9.34098 164.662 9.52063 165.106C9.70028 165.549 10.0083 165.928 10.4052 166.195C10.8021 166.462 11.2697 166.604 11.748 166.604L100.193 166.604Z" fill="#E2E8F0"/>
</g>
</svg>
